<svg xmlns="http://www.w3.org/2000/svg" xmlns:xlink="http://www.w3.org/1999/xlink" viewBox="0 0 246.63 81.49"><defs><style>.cls-1{fill:none;}.cls-2{clip-path:url(#clip-path);}.cls-3{fill:#fff;}</style><clipPath id="clip-path"><rect class="cls-1" width="246.63" height="81.49"/></clipPath></defs><title>Asset 1</title><g id="Layer_2" data-name="Layer 2"><g id="Layer_1-2" data-name="Layer 1"><g class="cls-2"><path class="cls-3" d="M200.61,81.49a35.36,35.36,0,0,1-13.9-2.84,1.16,1.16,0,0,1,.91-2.14A33,33,0,0,0,217,17.43a1.16,1.16,0,1,1,1.15-2,35.36,35.36,0,0,1-14.08,65.9c-1.15.11-2.31.17-3.46.17"/><path class="cls-3" d="M238.53,59.39a1.16,1.16,0,0,1-1.11-1.51,38.51,38.51,0,0,0-65.75-36.81,1.16,1.16,0,1,1-1.75-1.53,40.84,40.84,0,0,1,69.71,39,1.16,1.16,0,0,1-1.11.82"/><path class="cls-3" d="M230.66,80.17a1.16,1.16,0,0,1-.78-2,43.46,43.46,0,0,0-55.17-67.07,1.16,1.16,0,1,1-1.4-1.85,45.79,45.79,0,0,1,58.12,70.65,1.16,1.16,0,0,1-.77.3"/><path class="cls-3" d="M212,73.88a1.16,1.16,0,0,1-.46-2.23,27.58,27.58,0,0,0-21.11-50.95,1.16,1.16,0,1,1-.86-2.16,29.9,29.9,0,0,1,22.89,55.24,1.17,1.17,0,0,1-.46.09"/><polygon class="cls-3" points="11.66 37.26 11.66 57.7 7.6 57.7 7.6 37.26 0 37.26 0 33.61 19.3 33.61 19.3 37.26 11.66 37.26"/><path class="cls-3" d="M33.65,50.4c-.34,0-.72,0-1.1,0H26.84V57.7H22.78V33.61h9.77c6.16,0,9.7,3,9.7,8.22,0,3.85-1.79,6.57-5,7.81l5.4,8.05H38.05Zm-1.1-3.61c3.72,0,5.85-1.58,5.85-4.85s-2.13-4.68-5.85-4.68H26.84v9.53Z"/><path class="cls-3" d="M51.06,52.26l-2.3,5.44H44.52L55.15,33.61h4.16L69.84,57.7H65.51l-2.3-5.44Zm6.06-14.31-4.54,10.7h9.08Z"/><polygon class="cls-3" points="89.94 57.7 77.1 40.43 77.1 57.7 73.04 57.7 73.04 33.61 77.03 33.61 89.94 50.92 89.94 33.61 93.93 33.61 93.93 57.7 89.94 57.7"/><path class="cls-3" d="M116.29,35.92l-1.69,3.58a14.4,14.4,0,0,0-7.05-2.24c-2.37,0-3.92.9-3.92,2.51,0,5.26,13,2.44,13,11.11,0,4.3-3.79,6.95-9.08,6.95A14.81,14.81,0,0,1,97.68,54l1.76-3.51A12.7,12.7,0,0,0,107.59,54c2.82,0,4.51-1.07,4.51-2.92,0-5.37-13-2.37-13-10.94,0-4.13,3.54-6.71,8.77-6.71a15.69,15.69,0,0,1,8.43,2.48"/><path class="cls-3" d="M141.17,37.23l-2.37,3a9.41,9.41,0,0,0-6.71-3.06,8.48,8.48,0,1,0,0,17,10,10,0,0,0,6.71-2.86l2.41,2.68a13.67,13.67,0,0,1-9.32,4,12.21,12.21,0,0,1-12.52-12.25c0-6.85,5.54-12.11,12.66-12.11a13.3,13.3,0,0,1,9.15,3.72"/><polygon class="cls-3" points="149.05 37.26 149.05 43.76 160.81 43.76 160.81 47.41 149.05 47.41 149.05 54.05 162.6 54.05 162.6 57.7 144.99 57.7 144.99 33.61 162.19 33.61 162.19 37.26 149.05 37.26"/><polygon class="cls-3" points="182.73 57.7 169.9 40.43 169.9 57.7 165.84 57.7 165.84 33.61 169.83 33.61 182.73 50.92 182.73 33.61 186.72 33.61 186.72 57.7 182.73 57.7"/><path class="cls-3" d="M200.38,33.61c7.22,0,12.45,5.06,12.45,12s-5.26,12-12.56,12h-9.77V33.61ZM194.57,54h5.92a8.07,8.07,0,0,0,8.26-8.36,8.21,8.21,0,0,0-8.43-8.43h-5.74Z"/></g></g></g></svg>